<svg width="300" height="100" viewBox="0 0 300 100" fill="none" xmlns="http://www.w3.org/2000/svg">
<g filter="url(#filter0_d_46_83)">
<path d="M82.5176 37.1904H88.7891C93.0195 37.1904 96.3717 38.2357 98.8457 40.3262C101.518 42.5651 102.854 45.8307 102.854 50.123C102.854 54.4154 101.555 57.6748 98.957 59.9014C96.5326 61.9671 93.2051 63 88.9746 63H82.5176V37.1904ZM99.0498 50.1416C99.0498 43.499 95.5492 40.1777 88.5479 40.1777H86.2285V60.0312H88.752C94.0957 60.0312 97.349 58.1016 98.5117 54.2422C98.8704 53.0176 99.0498 51.6507 99.0498 50.1416ZM116.825 63.2969C109.824 63.2969 106.323 59.8766 106.323 53.0361C106.323 50.0921 107.294 47.7357 109.236 45.9668C110.98 44.3587 112.972 43.5547 115.211 43.5547C117.648 43.5547 119.553 44.3711 120.926 46.0039C122.2 47.5254 122.837 49.5602 122.837 52.1084V53.5557H110.183C110.183 57.0563 111.611 59.1963 114.469 59.9756C115.149 60.1611 116.194 60.2539 117.604 60.2539C119.027 60.2539 120.419 60.0622 121.779 59.6787V62.8145C120.419 63.1361 118.767 63.2969 116.825 63.2969ZM119.126 50.8281C119.126 49.6406 118.798 48.6387 118.143 47.8223C117.376 46.8822 116.318 46.4121 114.97 46.4121C113.547 46.4121 112.391 46.8636 111.5 47.7666C110.684 48.6077 110.275 49.6283 110.275 50.8281H119.126ZM139.091 47.2471C138.41 47.0492 137.594 46.9502 136.642 46.9502C135.701 46.9502 134.928 47.0492 134.322 47.2471C133.716 47.4326 133.184 47.6615 132.727 47.9336C131.885 48.4284 131.273 48.985 130.89 49.6035V63H127.179V43.8516H130.741L130.89 46.5049C131.817 45.3421 133.172 44.4701 134.953 43.8887C135.596 43.666 136.332 43.5547 137.161 43.5547C137.99 43.5547 138.633 43.6165 139.091 43.7402V47.2471ZM146.55 48.6201L146.568 63H142.857V43.8516H146.271L146.531 45.9482C147.892 44.8102 149.475 44.068 151.281 43.7217C151.863 43.6104 152.432 43.5547 152.988 43.5547C155.301 43.5547 157.046 44.5319 158.221 46.4863C160.373 44.5319 162.624 43.5547 164.975 43.5547C167.3 43.5547 168.995 44.2536 170.059 45.6514C171.122 47.0739 171.654 49.4242 171.654 52.7021V63H167.943V52.832C167.943 49.6159 167.17 47.6924 165.624 47.0615C165.104 46.8512 164.498 46.7461 163.806 46.7461C162.148 46.7461 160.627 47.3398 159.241 48.5273V63H155.53V52.6836C155.53 50.4818 155.202 48.9355 154.547 48.0449C153.916 47.179 152.784 46.7461 151.151 46.7461C149.531 46.7461 147.997 47.3708 146.55 48.6201ZM176.367 53.3887C176.367 50.3828 177.326 47.946 179.243 46.0781C181.037 44.334 183.257 43.4619 185.904 43.4619C188.502 43.4619 190.673 44.334 192.417 46.0781C194.272 47.9336 195.2 50.3704 195.2 53.3887C195.2 56.3945 194.266 58.819 192.398 60.6621C190.63 62.4186 188.459 63.2969 185.886 63.2969C183.276 63.2969 181.062 62.4186 179.243 60.6621C177.326 58.819 176.367 56.3945 176.367 53.3887ZM180.227 53.3887C180.227 56.5553 181.241 58.7077 183.27 59.8457C183.987 60.2415 184.847 60.4395 185.849 60.4395C186.851 60.4395 187.698 60.2415 188.391 59.8457C189.083 59.4375 189.652 58.9056 190.098 58.25C190.926 56.9883 191.341 55.3678 191.341 53.3887C191.341 50.2467 190.345 48.0944 188.354 46.9316C187.661 46.5234 186.832 46.3193 185.867 46.3193C184.902 46.3193 184.061 46.5234 183.344 46.9316C182.639 47.3275 182.057 47.8532 181.6 48.5088C180.684 49.7952 180.227 51.4219 180.227 53.3887ZM217.299 62.8516C216.074 63.0742 214.423 63.1855 212.345 63.1855C210.279 63.1855 208.411 62.901 206.741 62.332C205.084 61.763 203.655 60.9219 202.455 59.8086C199.882 57.4212 198.596 54.0938 198.596 49.8262C198.596 47.043 199.257 44.6309 200.581 42.5898C202.375 39.8314 205.127 38.0749 208.838 37.3203C209.976 37.0977 211.33 36.9863 212.901 36.9863C214.485 36.9863 215.753 37.0729 216.705 37.2461V40.79C215.839 40.5179 214.497 40.3818 212.679 40.3818C210.873 40.3818 209.339 40.6045 208.077 41.0498C206.815 41.4951 205.77 42.1322 204.941 42.9609C203.284 44.5814 202.455 46.8698 202.455 49.8262C202.455 52.8073 203.271 55.1699 204.904 56.9141C206.673 58.7943 209.215 59.7344 212.53 59.7344C214.472 59.7344 216.062 59.5859 217.299 59.2891V62.8516ZM222.754 35.3906H226.465V55.7451C226.465 58.1943 227.021 59.6354 228.135 60.0684C228.506 60.2168 228.902 60.291 229.322 60.291C229.743 60.291 230.12 60.2415 230.454 60.1426V63L229.768 63.0742C229.545 63.099 229.328 63.1113 229.118 63.1113C226.743 63.1113 225.03 62.332 223.979 60.7734C223.162 59.5488 222.754 57.8789 222.754 55.7637V35.3906ZM238.971 38.2852C238.971 38.9902 238.736 39.5345 238.266 39.918C237.808 40.2891 237.233 40.4746 236.54 40.4746C235.847 40.4746 235.272 40.2891 234.814 39.918C234.369 39.5345 234.146 38.9902 234.146 38.2852C234.146 37.5677 234.369 37.0234 234.814 36.6523C235.272 36.2812 235.847 36.0957 236.54 36.0957C237.233 36.0957 237.808 36.2812 238.266 36.6523C238.736 37.0234 238.971 37.5677 238.971 38.2852ZM234.629 43.8516H238.34V63H234.629V43.8516ZM252.812 46.7461C250.969 46.7461 249.33 47.3708 247.896 48.6201V63H244.185V43.8516H247.617L247.877 45.9297C249.893 44.3464 251.978 43.5547 254.13 43.5547C256.406 43.5547 258.076 44.235 259.14 45.5957C260.253 47.0306 260.81 49.3438 260.81 52.5352V63H257.099V52.5352C257.099 49.4674 256.27 47.6367 254.612 47.043C254.08 46.8451 253.48 46.7461 252.812 46.7461ZM270.699 38.2852C270.699 38.9902 270.464 39.5345 269.994 39.918C269.536 40.2891 268.961 40.4746 268.269 40.4746C267.576 40.4746 267.001 40.2891 266.543 39.918C266.098 39.5345 265.875 38.9902 265.875 38.2852C265.875 37.5677 266.098 37.0234 266.543 36.6523C267.001 36.2812 267.576 36.0957 268.269 36.0957C268.961 36.0957 269.536 36.2812 269.994 36.6523C270.464 37.0234 270.699 37.5677 270.699 38.2852ZM266.357 43.8516H270.068V63H266.357V43.8516ZM289.662 62.9443C288.92 63.1794 287.633 63.2969 285.803 63.2969C283.972 63.2969 282.413 63.0742 281.127 62.6289C279.853 62.1836 278.764 61.528 277.861 60.6621C275.993 58.8685 275.06 56.3822 275.06 53.2031C275.06 50.123 276.179 47.6986 278.418 45.9297C280.422 44.3464 282.883 43.5547 285.803 43.5547C287.609 43.5547 288.846 43.6165 289.514 43.7402V47.043C288.475 46.709 287.287 46.542 285.951 46.542C284.628 46.542 283.527 46.7275 282.648 47.0986C281.77 47.4574 281.053 47.946 280.496 48.5645C279.445 49.7396 278.919 51.2858 278.919 53.2031C278.919 56.444 280.088 58.6025 282.426 59.6787C283.255 60.0622 284.065 60.2539 284.856 60.2539C285.648 60.2539 286.254 60.2354 286.675 60.1982C287.108 60.1611 287.516 60.1117 287.899 60.0498C288.716 59.9137 289.303 59.7715 289.662 59.623V62.9443Z" fill="black"/>
</g>
<path d="M40.5 21.5V73.5C47.3956 73.5 54.0088 70.7607 58.8848 65.8848C63.7607 61.0088 66.5 54.3956 66.5 47.5C66.5 40.6044 63.7607 33.9912 58.8848 29.1152C54.0088 24.2393 47.3956 21.5 40.5 21.5V21.5ZM40.5 80C31.8805 80 23.614 76.5759 17.519 70.481C11.4241 64.386 8 56.1195 8 47.5C8 38.8805 11.4241 30.614 17.519 24.519C23.614 18.4241 31.8805 15 40.5 15C49.1195 15 57.386 18.4241 63.481 24.519C69.5759 30.614 73 38.8805 73 47.5C73 56.1195 69.5759 64.386 63.481 70.481C57.386 76.5759 49.1195 80 40.5 80Z" fill="black"/>
<path d="M17.5117 36.1904H23.7832C28.0137 36.1904 31.3659 37.2357 33.8398 39.3262C36.5117 41.5651 37.8477 44.8307 37.8477 49.123C37.8477 53.4154 36.5488 56.6748 33.9512 58.9014C31.5267 60.9671 28.1992 62 23.9688 62H17.5117V36.1904ZM34.0439 49.1416C34.0439 42.499 30.5433 39.1777 23.542 39.1777H21.2227V59.0312H23.7461C29.0898 59.0312 32.3431 57.1016 33.5059 53.2422C33.8646 52.0176 34.0439 50.6507 34.0439 49.1416Z" fill="white"/>
<path d="M60.2188 61.8516C58.9941 62.0742 57.3428 62.1855 55.2646 62.1855C53.1989 62.1855 51.3311 61.901 49.6611 61.332C48.0036 60.763 46.5749 59.9219 45.375 58.8086C42.8021 56.4212 41.5156 53.0938 41.5156 48.8262C41.5156 46.043 42.1774 43.6309 43.501 41.5898C45.2946 38.8314 48.0469 37.0749 51.7578 36.3203C52.8958 36.0977 54.2503 35.9863 55.8213 35.9863C57.4046 35.9863 58.6725 36.0729 59.625 36.2461V39.79C58.7591 39.5179 57.417 39.3818 55.5986 39.3818C53.7926 39.3818 52.2588 39.6045 50.9971 40.0498C49.7354 40.4951 48.6901 41.1322 47.8613 41.9609C46.2038 43.5814 45.375 45.8698 45.375 48.8262C45.375 51.8073 46.1914 54.1699 47.8242 55.9141C49.5931 57.7943 52.1351 58.7344 55.4502 58.7344C57.3923 58.7344 58.9818 58.5859 60.2188 58.2891V61.8516Z" fill="black"/>
<defs>
<filter id="filter0_d_46_83" x="78.5176" y="35.3906" width="215.145" height="35.9062" filterUnits="userSpaceOnUse" color-interpolation-filters="sRGB">
<feFlood flood-opacity="0" result="BackgroundImageFix"/>
<feColorMatrix in="SourceAlpha" type="matrix" values="0 0 0 0 0 0 0 0 0 0 0 0 0 0 0 0 0 0 127 0" result="hardAlpha"/>
<feOffset dy="4"/>
<feGaussianBlur stdDeviation="2"/>
<feComposite in2="hardAlpha" operator="out"/>
<feColorMatrix type="matrix" values="0 0 0 0 0 0 0 0 0 0 0 0 0 0 0 0 0 0 0.25 0"/>
<feBlend mode="normal" in2="BackgroundImageFix" result="effect1_dropShadow_46_83"/>
<feBlend mode="normal" in="SourceGraphic" in2="effect1_dropShadow_46_83" result="shape"/>
</filter>
</defs>
</svg>
