<svg width="308" height="108" viewBox="0 0 308 108" fill="none" xmlns="http://www.w3.org/2000/svg">
<g filter="url(#filter0_d_41_83)">
<path d="M4 24C4 15.5992 4 11.3988 5.6349 8.19014C7.073 5.36771 9.36771 3.073 12.1901 1.6349C15.3988 0 19.5992 0 28 0H280C288.401 0 292.601 0 295.81 1.6349C298.632 3.073 300.927 5.36771 302.365 8.19014C304 11.3988 304 15.5992 304 24V76C304 84.4008 304 88.6012 302.365 91.8099C300.927 94.6323 298.632 96.927 295.81 98.3651C292.601 100 288.401 100 280 100H28C19.5992 100 15.3988 100 12.1901 98.3651C9.36771 96.927 7.073 94.6323 5.6349 91.8099C4 88.6012 4 84.4008 4 76V24Z" fill="white"/>
<path d="M28 0.5H280C284.209 0.5 287.335 0.500389 289.811 0.702702C292.282 0.904539 294.061 1.30485 295.583 2.08041C298.311 3.47057 300.529 5.68879 301.92 8.41714C302.695 9.93924 303.095 11.7184 303.297 14.1887C303.5 16.6649 303.5 19.7914 303.5 24V76C303.5 80.2086 303.5 83.3351 303.297 85.8113C303.095 88.2816 302.695 90.0608 301.92 91.5829C300.529 94.3112 298.311 96.5294 295.583 97.9196C294.061 98.6951 292.282 99.0955 289.811 99.2973C287.335 99.4996 284.209 99.5 280 99.5H28C23.7914 99.5 20.6649 99.4996 18.1887 99.2973C15.7184 99.0955 13.9392 98.6951 12.4171 97.9196C9.68879 96.5294 7.47057 94.3112 6.08041 91.5829C5.30485 90.0608 4.90454 88.2816 4.7027 85.8113C4.50039 83.3351 4.5 80.2086 4.5 76V24C4.5 19.7914 4.50039 16.6649 4.7027 14.1887C4.90454 11.7184 5.30485 9.93924 6.08041 8.41714C7.47057 5.68879 9.68879 3.47057 12.4171 2.08041C13.9392 1.30485 15.7184 0.904539 18.1887 0.702702C20.6649 0.500389 23.7914 0.5 28 0.5Z" stroke="white"/>
</g>
<g filter="url(#filter1_d_41_83)">
<path d="M86.5176 37.1904H92.7891C97.0195 37.1904 100.372 38.2357 102.846 40.3262C105.518 42.5651 106.854 45.8307 106.854 50.123C106.854 54.4154 105.555 57.6748 102.957 59.9014C100.533 61.9671 97.2051 63 92.9746 63H86.5176V37.1904ZM103.05 50.1416C103.05 43.499 99.5492 40.1777 92.5479 40.1777H90.2285V60.0312H92.752C98.0957 60.0312 101.349 58.1016 102.512 54.2422C102.87 53.0176 103.05 51.6507 103.05 50.1416ZM120.825 63.2969C113.824 63.2969 110.323 59.8766 110.323 53.0361C110.323 50.0921 111.294 47.7357 113.236 45.9668C114.98 44.3587 116.972 43.5547 119.211 43.5547C121.648 43.5547 123.553 44.3711 124.926 46.0039C126.2 47.5254 126.837 49.5602 126.837 52.1084V53.5557H114.183C114.183 57.0563 115.611 59.1963 118.469 59.9756C119.149 60.1611 120.194 60.2539 121.604 60.2539C123.027 60.2539 124.419 60.0622 125.779 59.6787V62.8145C124.419 63.1361 122.767 63.2969 120.825 63.2969ZM123.126 50.8281C123.126 49.6406 122.798 48.6387 122.143 47.8223C121.376 46.8822 120.318 46.4121 118.97 46.4121C117.547 46.4121 116.391 46.8636 115.5 47.7666C114.684 48.6077 114.275 49.6283 114.275 50.8281H123.126ZM143.091 47.2471C142.41 47.0492 141.594 46.9502 140.642 46.9502C139.701 46.9502 138.928 47.0492 138.322 47.2471C137.716 47.4326 137.184 47.6615 136.727 47.9336C135.885 48.4284 135.273 48.985 134.89 49.6035V63H131.179V43.8516H134.741L134.89 46.5049C135.817 45.3421 137.172 44.4701 138.953 43.8887C139.596 43.666 140.332 43.5547 141.161 43.5547C141.99 43.5547 142.633 43.6165 143.091 43.7402V47.2471ZM150.55 48.6201L150.568 63H146.857V43.8516H150.271L150.531 45.9482C151.892 44.8102 153.475 44.068 155.281 43.7217C155.863 43.6104 156.432 43.5547 156.988 43.5547C159.301 43.5547 161.046 44.5319 162.221 46.4863C164.373 44.5319 166.624 43.5547 168.975 43.5547C171.3 43.5547 172.995 44.2536 174.059 45.6514C175.122 47.0739 175.654 49.4242 175.654 52.7021V63H171.943V52.832C171.943 49.6159 171.17 47.6924 169.624 47.0615C169.104 46.8512 168.498 46.7461 167.806 46.7461C166.148 46.7461 164.627 47.3398 163.241 48.5273V63H159.53V52.6836C159.53 50.4818 159.202 48.9355 158.547 48.0449C157.916 47.179 156.784 46.7461 155.151 46.7461C153.531 46.7461 151.997 47.3708 150.55 48.6201ZM180.367 53.3887C180.367 50.3828 181.326 47.946 183.243 46.0781C185.037 44.334 187.257 43.4619 189.904 43.4619C192.502 43.4619 194.673 44.334 196.417 46.0781C198.272 47.9336 199.2 50.3704 199.2 53.3887C199.2 56.3945 198.266 58.819 196.398 60.6621C194.63 62.4186 192.459 63.2969 189.886 63.2969C187.276 63.2969 185.062 62.4186 183.243 60.6621C181.326 58.819 180.367 56.3945 180.367 53.3887ZM184.227 53.3887C184.227 56.5553 185.241 58.7077 187.27 59.8457C187.987 60.2415 188.847 60.4395 189.849 60.4395C190.851 60.4395 191.698 60.2415 192.391 59.8457C193.083 59.4375 193.652 58.9056 194.098 58.25C194.926 56.9883 195.341 55.3678 195.341 53.3887C195.341 50.2467 194.345 48.0944 192.354 46.9316C191.661 46.5234 190.832 46.3193 189.867 46.3193C188.902 46.3193 188.061 46.5234 187.344 46.9316C186.639 47.3275 186.057 47.8532 185.6 48.5088C184.684 49.7952 184.227 51.4219 184.227 53.3887ZM221.299 62.8516C220.074 63.0742 218.423 63.1855 216.345 63.1855C214.279 63.1855 212.411 62.901 210.741 62.332C209.084 61.763 207.655 60.9219 206.455 59.8086C203.882 57.4212 202.596 54.0938 202.596 49.8262C202.596 47.043 203.257 44.6309 204.581 42.5898C206.375 39.8314 209.127 38.0749 212.838 37.3203C213.976 37.0977 215.33 36.9863 216.901 36.9863C218.485 36.9863 219.753 37.0729 220.705 37.2461V40.79C219.839 40.5179 218.497 40.3818 216.679 40.3818C214.873 40.3818 213.339 40.6045 212.077 41.0498C210.815 41.4951 209.77 42.1322 208.941 42.9609C207.284 44.5814 206.455 46.8698 206.455 49.8262C206.455 52.8073 207.271 55.1699 208.904 56.9141C210.673 58.7943 213.215 59.7344 216.53 59.7344C218.472 59.7344 220.062 59.5859 221.299 59.2891V62.8516ZM226.754 35.3906H230.465V55.7451C230.465 58.1943 231.021 59.6354 232.135 60.0684C232.506 60.2168 232.902 60.291 233.322 60.291C233.743 60.291 234.12 60.2415 234.454 60.1426V63L233.768 63.0742C233.545 63.099 233.328 63.1113 233.118 63.1113C230.743 63.1113 229.03 62.332 227.979 60.7734C227.162 59.5488 226.754 57.8789 226.754 55.7637V35.3906ZM242.971 38.2852C242.971 38.9902 242.736 39.5345 242.266 39.918C241.808 40.2891 241.233 40.4746 240.54 40.4746C239.847 40.4746 239.272 40.2891 238.814 39.918C238.369 39.5345 238.146 38.9902 238.146 38.2852C238.146 37.5677 238.369 37.0234 238.814 36.6523C239.272 36.2812 239.847 36.0957 240.54 36.0957C241.233 36.0957 241.808 36.2812 242.266 36.6523C242.736 37.0234 242.971 37.5677 242.971 38.2852ZM238.629 43.8516H242.34V63H238.629V43.8516ZM256.812 46.7461C254.969 46.7461 253.33 47.3708 251.896 48.6201V63H248.185V43.8516H251.617L251.877 45.9297C253.893 44.3464 255.978 43.5547 258.13 43.5547C260.406 43.5547 262.076 44.235 263.14 45.5957C264.253 47.0306 264.81 49.3438 264.81 52.5352V63H261.099V52.5352C261.099 49.4674 260.27 47.6367 258.612 47.043C258.08 46.8451 257.48 46.7461 256.812 46.7461ZM274.699 38.2852C274.699 38.9902 274.464 39.5345 273.994 39.918C273.536 40.2891 272.961 40.4746 272.269 40.4746C271.576 40.4746 271.001 40.2891 270.543 39.918C270.098 39.5345 269.875 38.9902 269.875 38.2852C269.875 37.5677 270.098 37.0234 270.543 36.6523C271.001 36.2812 271.576 36.0957 272.269 36.0957C272.961 36.0957 273.536 36.2812 273.994 36.6523C274.464 37.0234 274.699 37.5677 274.699 38.2852ZM270.357 43.8516H274.068V63H270.357V43.8516ZM293.662 62.9443C292.92 63.1794 291.633 63.2969 289.803 63.2969C287.972 63.2969 286.413 63.0742 285.127 62.6289C283.853 62.1836 282.764 61.528 281.861 60.6621C279.993 58.8685 279.06 56.3822 279.06 53.2031C279.06 50.123 280.179 47.6986 282.418 45.9297C284.422 44.3464 286.883 43.5547 289.803 43.5547C291.609 43.5547 292.846 43.6165 293.514 43.7402V47.043C292.475 46.709 291.287 46.542 289.951 46.542C288.628 46.542 287.527 46.7275 286.648 47.0986C285.77 47.4574 285.053 47.946 284.496 48.5645C283.445 49.7396 282.919 51.2858 282.919 53.2031C282.919 56.444 284.088 58.6025 286.426 59.6787C287.255 60.0622 288.065 60.2539 288.856 60.2539C289.648 60.2539 290.254 60.2354 290.675 60.1982C291.108 60.1611 291.516 60.1117 291.899 60.0498C292.716 59.9137 293.303 59.7715 293.662 59.623V62.9443Z" fill="black"/>
</g>
<path d="M44.5 21.5V73.5C51.3956 73.5 58.0088 70.7607 62.8848 65.8848C67.7607 61.0088 70.5 54.3956 70.5 47.5C70.5 40.6044 67.7607 33.9912 62.8848 29.1152C58.0088 24.2393 51.3956 21.5 44.5 21.5V21.5ZM44.5 80C35.8805 80 27.614 76.5759 21.519 70.481C15.4241 64.386 12 56.1195 12 47.5C12 38.8805 15.4241 30.614 21.519 24.519C27.614 18.4241 35.8805 15 44.5 15C53.1195 15 61.386 18.4241 67.481 24.519C73.5759 30.614 77 38.8805 77 47.5C77 56.1195 73.5759 64.386 67.481 70.481C61.386 76.5759 53.1195 80 44.5 80Z" fill="black"/>
<path d="M21.5117 36.1904H27.7832C32.0137 36.1904 35.3659 37.2357 37.8398 39.3262C40.5117 41.5651 41.8477 44.8307 41.8477 49.123C41.8477 53.4154 40.5488 56.6748 37.9512 58.9014C35.5267 60.9671 32.1992 62 27.9688 62H21.5117V36.1904ZM38.0439 49.1416C38.0439 42.499 34.5433 39.1777 27.542 39.1777H25.2227V59.0312H27.7461C33.0898 59.0312 36.3431 57.1016 37.5059 53.2422C37.8646 52.0176 38.0439 50.6507 38.0439 49.1416Z" fill="white"/>
<path d="M64.2188 61.8516C62.9941 62.0742 61.3428 62.1855 59.2646 62.1855C57.1989 62.1855 55.3311 61.901 53.6611 61.332C52.0036 60.763 50.5749 59.9219 49.375 58.8086C46.8021 56.4212 45.5156 53.0938 45.5156 48.8262C45.5156 46.043 46.1774 43.6309 47.501 41.5898C49.2946 38.8314 52.0469 37.0749 55.7578 36.3203C56.8958 36.0977 58.2503 35.9863 59.8213 35.9863C61.4046 35.9863 62.6725 36.0729 63.625 36.2461V39.79C62.7591 39.5179 61.417 39.3818 59.5986 39.3818C57.7926 39.3818 56.2588 39.6045 54.9971 40.0498C53.7354 40.4951 52.6901 41.1322 51.8613 41.9609C50.2038 43.5814 49.375 45.8698 49.375 48.8262C49.375 51.8073 50.1914 54.1699 51.8242 55.9141C53.5931 57.7943 56.1351 58.7344 59.4502 58.7344C61.3923 58.7344 62.9818 58.5859 64.2188 58.2891V61.8516Z" fill="black"/>
<defs>
<filter id="filter0_d_41_83" x="0" y="0" width="308" height="108" filterUnits="userSpaceOnUse" color-interpolation-filters="sRGB">
<feFlood flood-opacity="0" result="BackgroundImageFix"/>
<feColorMatrix in="SourceAlpha" type="matrix" values="0 0 0 0 0 0 0 0 0 0 0 0 0 0 0 0 0 0 127 0" result="hardAlpha"/>
<feOffset dy="4"/>
<feGaussianBlur stdDeviation="2"/>
<feComposite in2="hardAlpha" operator="out"/>
<feColorMatrix type="matrix" values="0 0 0 0 0 0 0 0 0 0 0 0 0 0 0 0 0 0 0.25 0"/>
<feBlend mode="normal" in2="BackgroundImageFix" result="effect1_dropShadow_41_83"/>
<feBlend mode="normal" in="SourceGraphic" in2="effect1_dropShadow_41_83" result="shape"/>
</filter>
<filter id="filter1_d_41_83" x="82.5176" y="35.3906" width="215.145" height="35.9062" filterUnits="userSpaceOnUse" color-interpolation-filters="sRGB">
<feFlood flood-opacity="0" result="BackgroundImageFix"/>
<feColorMatrix in="SourceAlpha" type="matrix" values="0 0 0 0 0 0 0 0 0 0 0 0 0 0 0 0 0 0 127 0" result="hardAlpha"/>
<feOffset dy="4"/>
<feGaussianBlur stdDeviation="2"/>
<feComposite in2="hardAlpha" operator="out"/>
<feColorMatrix type="matrix" values="0 0 0 0 0 0 0 0 0 0 0 0 0 0 0 0 0 0 0.25 0"/>
<feBlend mode="normal" in2="BackgroundImageFix" result="effect1_dropShadow_41_83"/>
<feBlend mode="normal" in="SourceGraphic" in2="effect1_dropShadow_41_83" result="shape"/>
</filter>
</defs>
</svg>
